<svg width="12" height="12" viewBox="0 0 12 12" fill="none" xmlns="http://www.w3.org/2000/svg">
<path d="M10.875 6.5625H1.875V2.34375C1.87457 2.18487 1.90565 2.02749 1.96645 1.88071C2.02725 1.73393 2.11656 1.60066 2.22921 1.48863L2.23859 1.47926C2.41513 1.30297 2.6418 1.18549 2.88762 1.14286C3.13344 1.10023 3.38643 1.13454 3.61202 1.24109C3.39897 1.59532 3.31041 2.01059 3.36043 2.42092C3.41045 2.83125 3.59616 3.2131 3.88807 3.50578L4.14473 3.76245L3.6723 4.2349L4.2026 4.7652L4.67503 4.29277L7.29274 1.6751L7.76517 1.20267L7.23485 0.672351L6.7624 1.14478L6.50573 0.888117C6.19844 0.581679 5.79336 0.392779 5.36109 0.354336C4.92882 0.315892 4.49676 0.430342 4.14021 0.677742C3.76423 0.4403 3.31867 0.337794 2.87673 0.387065C2.43479 0.436335 2.02275 0.634451 1.70829 0.948867L1.69891 0.958242C1.51639 1.13976 1.37169 1.35569 1.27318 1.59351C1.17466 1.83133 1.1243 2.08633 1.125 2.34375V6.5625H0.375V7.3125H1.125V8.03203C1.12498 8.09249 1.13473 8.15255 1.15387 8.2099L1.85156 10.3029C1.8888 10.4149 1.96039 10.5124 2.05617 10.5814C2.15196 10.6505 2.26706 10.6876 2.38514 10.6875H2.68748L2.41406 11.625H3.1953L3.46875 10.6875H8.34609L8.62734 11.625H9.41016L9.12891 10.6875H9.61477C9.73286 10.6876 9.84799 10.6505 9.94379 10.5815C10.0396 10.5124 10.1112 10.4149 10.1484 10.3029L10.8461 8.2099C10.8652 8.15255 10.875 8.09249 10.875 8.03203V7.3125H11.625V6.5625H10.875ZM4.41844 1.41844C4.62506 1.21226 4.90503 1.09647 5.19693 1.09647C5.48882 1.09647 5.76879 1.21226 5.97541 1.41844L6.23203 1.6751L4.6751 3.23203L4.41844 2.97541C4.21227 2.76878 4.09649 2.48881 4.09649 2.19693C4.09649 1.90504 4.21227 1.62507 4.41844 1.41844ZM10.125 8.00156L9.47972 9.9375H2.52028L1.875 8.00156V7.3125H10.125V8.00156Z" fill="white"/>
</svg>
