<svg width="12" height="12" viewBox="0 0 12 12" fill="none" xmlns="http://www.w3.org/2000/svg">
<path d="M10.6665 4.57492V0.75H9.49984V1.91667H2.49984V0.75H1.33317V4.57492C0.639004 4.97917 0.166504 5.72292 0.166504 6.58333V8.91667C0.166504 9.07138 0.227962 9.21975 0.337358 9.32915C0.446754 9.43854 0.595128 9.5 0.749837 9.5H1.33317V11.8333H2.49984V9.5H9.49984V11.8333H10.6665V9.5H11.2498C11.4045 9.5 11.5529 9.43854 11.6623 9.32915C11.7717 9.21975 11.8332 9.07138 11.8332 8.91667V6.58333C11.8332 5.72292 11.3601 4.97917 10.6665 4.57492ZM9.49984 3.08333V4.25H6.58317V3.08333H9.49984ZM2.49984 3.08333H5.4165V4.25H2.49984V3.08333ZM10.6665 8.33333H1.33317V6.58333C1.33317 5.93992 1.85642 5.41667 2.49984 5.41667H9.49984C10.1433 5.41667 10.6665 5.93992 10.6665 6.58333V8.33333Z" fill="white"/>
</svg>
