<svg width="12" height="12" viewBox="0 0 12 12" fill="none" xmlns="http://www.w3.org/2000/svg">
<path d="M10.0835 0.166668H4.2502C3.60678 0.166668 3.08353 0.689918 3.08353 1.33333V4.59183L0.337785 7.33758C0.256229 7.41916 0.200692 7.52309 0.178194 7.63623C0.155696 7.74937 0.167248 7.86664 0.211389 7.97322C0.25553 8.07979 0.330278 8.17089 0.426184 8.23498C0.522089 8.29908 0.634847 8.33331 0.750201 8.33333V11.25C0.750201 11.4047 0.811659 11.5531 0.921055 11.6625C1.03045 11.7719 1.17882 11.8333 1.33353 11.8333H10.6669C10.8216 11.8333 10.9699 11.7719 11.0793 11.6625C11.1887 11.5531 11.2502 11.4047 11.2502 11.25V1.33333C11.2502 0.689918 10.7269 0.166668 10.0835 0.166668ZM5.41687 10.6667H1.91687V7.40817L3.66687 5.65817L5.41687 7.40817V10.6667ZM10.0835 10.6667H6.58353V8.33333C6.69901 8.33359 6.81196 8.29953 6.90805 8.23548C7.00414 8.17142 7.07903 8.08027 7.12322 7.97358C7.16741 7.86689 7.1789 7.74947 7.15624 7.63624C7.13358 7.523 7.07779 7.41905 6.99595 7.33758L4.2502 4.59183V1.33333H10.0835V10.6667Z" fill="white"/>
</svg>
